<svg xmlns="http://www.w3.org/2000/svg" version="1.1" xmlns:xlink="http://www.w3.org/1999/xlink" xmlns:svgjs="http://svgjs.dev/svgjs" width="2000" height="1500" viewBox="0 0 2000 1500"><rect width="2000" height="1500" fill="#ffffff"></rect><g transform="matrix(0.75,0,0,0.75,249.090909090909,278.98548387096776)"><svg viewBox="0 0 396 248" data-background-color="#ffffff" preserveAspectRatio="xMidYMid meet" height="1252" width="2000" xmlns="http://www.w3.org/2000/svg" xmlns:xlink="http://www.w3.org/1999/xlink"><g id="tight-bounds" transform="matrix(1,0,0,1,0.2400000000000091,0.4000000000000057)"><svg viewBox="0 0 395.52 247.2" height="247.2" width="395.52"><g><svg></svg></g><g><svg viewBox="0 0 395.52 247.2" height="247.2" width="395.52"><g transform="matrix(1,0,0,1,140.69535143515395,47.215199999999996)"><svg viewBox="0 0 114.12929712969208 152.7696" height="152.7696" width="114.12929712969208"><g><svg viewBox="0 0 114.12929712969208 152.7696" height="152.7696" width="114.12929712969208"><g><svg viewBox="0 0 162.2580356762603 217.19309441536114" height="152.7696" width="114.12929712969208"><g><svg viewBox="0 0 162.2580356762603 217.19309441536114" height="217.19309441536114" width="162.2580356762603"><g id="textblocktransform"><svg viewBox="0 0 162.2580356762603 217.19309441536114" height="217.19309441536114" width="162.2580356762603" id="textblock"><g><svg viewBox="0 0 162.2580356762603 151.825483872" height="151.825483872" width="162.2580356762603"><g transform="matrix(1,0,0,1,0,0)"><svg width="162.2580356762603" viewBox="-1.65 -31.65 39.949999999999996 37.381388811097" height="151.825483872" data-palette-color="#31c48d"><path d="M24.8 5.7L24.8 5.7Q22.1 5.55 19.53 4.53 16.95 3.5 14.83 2.13 12.7 0.75 11.25-0.45L11.25-0.45Q9.55 0.65 7.93 1.25 6.3 1.85 4.75 1.85L4.75 1.85Q4.5 1.85 4.2 1.83 3.9 1.8 3.6 1.75L3.6 1.75Q0.75 1.25-0.45-0.15-1.65-1.55-1.65-3.1L-1.65-3.1Q-1.65-4.3-1.05-5.4-0.45-6.5 0.53-7.2 1.5-7.9 2.75-7.9L2.75-7.9Q4.3-7.9 5.95-6.85 7.6-5.8 9.13-4.42 10.65-3.05 11.7-2.1L11.7-2.1Q14.15-4.4 15.93-7.75 17.7-11.1 19.55-14.6L19.55-14.6Q17-14.7 14.75-15.7 12.5-16.7 11.1-18.5 9.7-20.3 9.7-22.75L9.7-22.75Q9.7-25.45 10.88-27.28 12.05-29.1 13.78-30.05 15.5-31 17.15-31L17.15-31Q18.9-31 20.13-29.98 21.35-28.95 21.35-26.9L21.35-26.9Q21.35-26.4 21.1-26.4L21.1-26.4Q20.8-26.4 20.8-26.95L20.8-26.95Q20.8-28.6 19.68-29.48 18.55-30.35 17.05-30.35L17.05-30.35Q15.7-30.35 14.3-29.55 12.9-28.75 11.95-27.1 11-25.45 11-22.85L11-22.85Q11-20.7 12.1-18.98 13.2-17.25 15.23-16.28 17.25-15.3 20-15.35L20-15.35Q21.55-18.35 23.1-21.1 24.65-23.85 26.2-25.75L26.2-25.75Q29.1-29.25 31.4-30.45 33.7-31.65 35.25-31.65L35.25-31.65Q36.35-31.65 37.02-31.28 37.7-30.9 37.9-30.5L37.9-30.5Q38.3-29.7 38.3-28.85L38.3-28.85Q38.3-27.2 37.15-25.35 36-23.5 34.13-21.7 32.25-19.9 30.08-18.4 27.9-16.9 25.83-15.9 23.75-14.9 22.15-14.7L22.15-14.7Q20.3-10.5 17.8-6.85 15.3-3.2 12.55-1.3L12.55-1.3Q13.6-0.5 15.05 0.45 16.5 1.4 18.13 2.27 19.75 3.15 21.23 3.78 22.7 4.4 23.75 4.65L23.75 4.65Q24.9 4.95 26.75 4.95L26.75 4.95Q28.3 4.95 29.93 4.6 31.55 4.25 32.8 3.4 34.05 2.55 34.4 1.05L34.4 1.05Q34.45 0.85 34.75 0.85L34.75 0.85Q35.1 0.85 35.05 1.25L35.05 1.25Q34.4 3.75 31.63 4.83 28.85 5.9 24.8 5.7ZM24.15-19L22.55-15.65Q24.35-15.95 26.4-16.95 28.45-17.95 30.43-19.43 32.4-20.9 34.02-22.55 35.65-24.2 36.6-25.83 37.55-27.45 37.55-28.7L37.55-28.7Q37.55-29.6 37.05-30.15L37.05-30.15Q36.7-30.6 35.75-30.6L35.75-30.6Q34.6-30.6 32.73-29.65 30.85-28.7 28.63-26.2 26.4-23.7 24.15-19L24.15-19ZM4.25 1.05L4.25 1.05Q7.75 1.05 10.5-1.15L10.5-1.15Q8.8-2.6 7.08-3.93 5.35-5.25 3.9-5.95L3.9-5.95Q2.65-6.55 1.75-6.55L1.75-6.55Q0.5-6.55-0.18-5.65-0.85-4.75-0.85-3.6L-0.85-3.6Q-0.85-2.5-0.3-1.43 0.25-0.35 1.4 0.35 2.55 1.05 4.25 1.05Z" opacity="1" transform="matrix(1,0,0,1,0,0)" fill="#31c48d" class="wordmark-text-0" data-fill-palette-color="primary" id="text-0"></path></svg></g></svg></g><g transform="matrix(1,0,0,1,0,187.66783680256628)"><svg viewBox="0 0 162.2580356762603 29.525257612794867" height="29.525257612794867" width="162.2580356762603"><g transform="matrix(1,0,0,1,0,0)"><svg width="162.2580356762603" viewBox="0.93 -36.52 202.44 36.768886844428" height="29.525257612794867" data-palette-color="#31c48d"><path d="M0.93-7.91L0.93-7.91Q1.03-9.62 1.15-11.79 1.27-13.96 1.46-16.14 1.66-18.31 1.9-20.34 2.15-22.36 2.49-23.88 2.83-25.39 3.22-26.22L3.22-26.22Q3.71-27.05 4.2-26.76L4.2-26.76Q4.88-26.66 5.08-25.68 5.27-24.71 5.2-23.1 5.13-21.48 4.83-19.43 4.54-17.38 4.27-15.23 4-13.09 3.81-10.96 3.61-8.84 3.71-7.08L3.71-7.08Q3.71-6.59 3.88-6.03 4.05-5.47 4.35-4.98 4.64-4.49 5.08-4.1L5.08-4.1Q5.57-3.71 6.1-3.71L6.1-3.71 15.92-2.83Q16.36-2.78 16.43-2.34 16.5-1.9 16.5-1.66L16.5-1.66Q16.5-0.78 15.97-0.49 15.43-0.2 14.55 0L14.55 0Q14.36 0 13.84 0.02 13.33 0.05 12.77 0.07 12.21 0.1 11.72 0.1 11.23 0.1 11.04 0.1L11.04 0.1Q8.79 0.1 6.91-0.24 5.03-0.59 3.71-1.49 2.39-2.39 1.66-3.93 0.93-5.47 0.93-7.91ZM18.26-13.09L18.26-13.09Q18.26-15.63 19.02-17.94 19.78-20.26 21.22-22.02 22.66-23.78 24.73-24.83 26.81-25.88 29.54-25.88L29.54-25.88Q31.15-25.68 32.35-25 33.54-24.32 34.3-23.32 35.06-22.31 35.4-21L35.4-21Q35.69-19.73 35.69-18.26L35.69-18.26Q35.69-16.5 34.67-15.09 33.64-13.67 32.08-12.72 30.52-11.77 28.71-11.25 26.9-10.74 25.34-10.74L25.34-10.74Q24.76-10.74 24.15-10.74 23.54-10.74 23.05-10.94 22.56-11.13 22.27-11.52 21.97-11.91 21.97-12.7L21.97-12.7Q21.97-12.94 22.05-13.11 22.12-13.28 22.46-13.35 22.8-13.43 23.49-13.38L23.49-13.38Q24.17-13.28 25.34-13.09L25.34-13.09Q26.03-13.09 27.32-13.55 28.61-14.01 29.96-14.75 31.3-15.48 32.28-16.43 33.25-17.38 33.25-18.31L33.25-18.31Q33.25-19.29 32.93-20.24 32.62-21.19 31.98-21.92 31.35-22.66 30.49-23.1 29.64-23.54 28.56-23.44L28.56-23.44Q26.86-23.29 25.46-22.51 24.07-21.73 23.1-20.48 22.12-19.24 21.58-17.72 21.04-16.21 21.04-14.55L21.04-14.55Q21.04-13.28 21.09-12.01 21.14-10.74 21.46-9.52 21.78-8.3 22.49-7.18 23.19-6.05 24.54-5.2 25.88-4.35 27.93-3.78 29.98-3.22 33.01-3.08L33.01-3.08 41.75-3.66Q40.97-2.59 39.77-1.9 38.57-1.22 37.23-0.81 35.89-0.39 34.57-0.2 33.25 0 32.08 0L32.08 0Q29.25 0 26.76-0.93 24.27-1.86 22.36-3.54 20.46-5.22 19.36-7.64 18.26-10.06 18.26-13.09ZM49.76-16.8L49.76-16.8Q49.37-16.8 48.39-16.8 47.41-16.8 46.36-16.97 45.31-17.14 44.46-17.53 43.6-17.92 43.6-18.65L43.6-18.65Q43.6-18.85 43.68-19.21 43.75-19.58 44.14-19.58L44.14-19.58 49.17-20.02Q49.37-21.83 49.46-22.97 49.56-24.12 49.51-25.12 49.46-26.12 49.39-27.22 49.32-28.32 49.27-30.08L49.27-30.08Q49.27-30.42 49.41-30.62 49.56-30.81 49.78-30.91 50-31.01 50.27-31.05 50.54-31.1 50.68-31.1L50.68-31.1Q50.98-31.1 51.29-30.91 51.61-30.71 51.86-30.42 52.1-30.13 52.25-29.81 52.39-29.49 52.39-29.2L52.39-29.2 52.78-20.07 56.98-19.87Q57.81-19.97 58.52-19.56 59.23-19.14 59.28-18.02L59.28-18.02Q58.69-17.38 57.86-17.26 57.03-17.14 56.13-17.16 55.22-17.19 54.35-17.16 53.47-17.14 52.78-16.7L52.78-16.7Q52.78-16.41 52.83-15.09 52.88-13.77 52.93-11.96 52.98-10.16 53.05-8.11 53.13-6.05 53.17-4.32 53.22-2.59 53.25-1.37 53.27-0.15 53.27 0L53.27 0Q52.15 0.68 51.46-0.12 50.78-0.93 50.37-2.51 49.95-4.1 49.78-6.23 49.61-8.35 49.58-10.42 49.56-12.5 49.61-14.26 49.66-16.02 49.76-16.8ZM60.5-34.77L60.5-34.77Q60.5-35.06 60.5-35.28 60.5-35.5 60.6-35.67 60.69-35.84 60.89-36.04 61.08-36.23 61.38-36.52L61.38-36.52Q61.91-36.23 62.33-35.5 62.74-34.77 63.01-33.81 63.28-32.86 63.43-31.71 63.57-30.57 63.67-29.47 63.77-28.37 63.79-27.44 63.82-26.51 63.82-25.93L63.82-25.93Q63.82-25.24 63.72-24.8L63.72-24.8Q63.62-24.37 62.84-24.37L62.84-24.37Q62.21-24.37 61.79-25.1 61.38-25.83 61.11-26.93 60.84-28.03 60.72-29.35 60.6-30.66 60.55-31.84 60.5-33.01 60.5-33.81 60.5-34.62 60.5-34.77ZM65.48-5.91L65.48-5.91Q65.87-6.2 66.19-6.27 66.5-6.35 66.89-6.35L66.89-6.35Q67.33-6.35 67.77-6.13 68.21-5.91 68.58-5.59 68.95-5.27 69.34-4.98L69.34-4.98Q69.73-4.69 70.17-4.49L70.17-4.49Q71.44-3.96 72.19-3.61 72.95-3.27 73.58-3.08 74.22-2.88 75.05-2.83 75.88-2.78 77.2-2.78L77.2-2.78Q78.22-2.78 79.69-2.76 81.15-2.73 82.47-3 83.79-3.27 84.72-3.98 85.64-4.69 85.64-6.15L85.64-6.15Q85.69-7.57 84.89-8.37 84.08-9.18 82.71-9.62 81.35-10.06 79.64-10.23 77.93-10.4 76.12-10.6 74.32-10.79 72.58-11.16 70.85-11.52 69.48-12.3 68.12-13.09 67.29-14.45L67.29-14.45Q66.46-15.82 66.41-17.97L66.41-17.97Q66.7-19.53 67.94-20.58 69.19-21.63 70.92-22.19 72.66-22.75 74.61-22.78 76.56-22.8 78.2-22.29 79.83-21.78 80.93-20.65 82.03-19.53 82.08-17.87L82.08-17.87Q82.18-16.89 81.93-16.26 81.69-15.63 81.27-15.31 80.86-14.99 80.42-15.01 79.98-15.04 79.74-15.36 79.49-15.67 79.52-16.28 79.54-16.89 80.08-17.82L80.08-17.82Q79.88-18.75 78.96-19.29 78.03-19.82 76.81-20.04 75.59-20.26 74.19-20.14 72.8-20.02 71.66-19.63 70.51-19.24 69.8-18.6 69.09-17.97 69.19-17.14L69.19-17.14Q69.19-15.67 70.04-14.87 70.9-14.06 72.27-13.62 73.63-13.18 75.42-12.99 77.2-12.79 79.08-12.62 80.96-12.45 82.71-12.13 84.47-11.82 85.89-11.08 87.3-10.35 88.13-9.11 88.96-7.86 88.96-5.86L88.96-5.86Q88.96-4.35 88.18-3.25 87.4-2.15 86.21-1.42 85.01-0.68 83.59-0.34 82.18 0 80.91 0 79.64 0 78.2-0.02 76.76-0.05 75.27-0.2 73.78-0.34 72.27-0.66 70.75-0.98 69.46-1.64 68.16-2.29 67.14-3.32 66.11-4.35 65.48-5.91ZM110.06-11.08L110.06-11.08Q110.06-12.89 110.52-14.89 110.99-16.89 111.99-18.6 112.99-20.31 114.53-21.41 116.06-22.51 118.31-22.51L118.31-22.51Q119.48-22.51 120.65-22.17 121.83-21.83 123.07-21.19 124.32-20.56 125.66-19.7 127-18.85 128.52-17.82L128.52-17.82Q128.71-19.78 128.37-21.85 128.03-23.93 127.49-25.93 126.95-27.93 126.39-29.71 125.83-31.49 125.59-32.91 125.34-34.33 125.54-35.25 125.73-36.18 126.71-36.43L126.71-36.43Q128.03-35.45 128.98-33.67 129.93-31.88 130.62-29.54 131.3-27.2 131.74-24.54 132.18-21.88 132.47-19.14 132.76-16.41 132.93-13.82 133.11-11.23 133.3-9.06 133.5-6.88 133.67-5.35 133.84-3.81 134.18-3.17L134.18-3.17Q134.18-2.39 133.62-2.2 133.06-2 132.47-2L132.47-2Q131.98-2 131.64-2.37 131.3-2.73 131.1-3.22 130.91-3.71 130.74-4.32 130.57-4.93 130.37-5.44 130.18-5.96 129.93-6.3 129.69-6.64 129.3-6.64L129.3-6.64Q129.2-6.64 129.03-6.62 128.86-6.59 128.86-6.54L128.86-6.54Q127.93-5.27 126.68-4.08 125.44-2.88 123.95-1.98 122.46-1.07 120.83-0.54 119.19 0 117.53 0L117.53 0Q115.67 0 114.28-1.22 112.89-2.44 111.94-4.15 110.99-5.86 110.52-7.76 110.06-9.67 110.06-11.08ZM113.09-10.21L113.09-10.21Q113.57-8.45 113.96-7.13 114.36-5.81 114.92-4.98 115.48-4.15 116.26-3.74 117.04-3.32 118.31-3.32L118.31-3.32Q119.87-3.32 121.63-4.22 123.39-5.13 124.9-6.54 126.42-7.96 127.39-9.64 128.37-11.33 128.37-12.89L128.37-12.89Q128.37-13.04 128.37-13.48 128.37-13.92 128.37-14.06L128.37-14.06Q125.78-16.6 123.61-17.7 121.44-18.8 119.73-18.82 118.02-18.85 116.75-18.07 115.48-17.29 114.65-16.02 113.82-14.75 113.43-13.18 113.04-11.62 113.09-10.21ZM136.28-9.96L136.28-9.96Q136.28-12.65 137.45-14.65 138.62-16.65 140.53-18.02 142.43-19.38 144.8-20.04 147.17-20.7 149.56-20.7L149.56-20.7Q150.83-20.7 151.93-20.24 153.03-19.78 154.03-18.97 155.03-18.16 155.81-17.11 156.59-16.06 157.15-14.94 157.71-13.82 158.01-12.67 158.3-11.52 158.3-10.45L158.3-10.45Q158.3-7.96 157.32-6.01 156.35-4.05 154.69-2.71 153.03-1.37 150.93-0.66 148.83 0.05 146.63 0.05L146.63 0.05Q144.38 0.05 142.5-0.66 140.63-1.37 139.23-2.64 137.84-3.91 137.06-5.79 136.28-7.67 136.28-9.96ZM138.67-10.35L138.67-10.35Q138.67-8.84 139.23-7.45 139.79-6.05 140.8-5.03 141.8-4 143.16-3.39 144.53-2.78 146.09-2.78L146.09-2.78Q146.92-2.69 148.12-3.05 149.32-3.42 150.51-4.13 151.71-4.83 152.81-5.83 153.91-6.84 154.64-8.03 155.37-9.23 155.54-10.52 155.71-11.82 155.1-13.11 154.49-14.4 152.88-15.6 151.27-16.8 148.44-17.82L148.44-17.82Q146.83-17.82 145.09-17.36 143.36-16.89 141.94-15.97 140.53-15.04 139.6-13.62 138.67-12.21 138.67-10.35ZM181.54-16.89L181.54-16.89Q181.54-17.09 181.54-17.63 181.54-18.16 181.57-18.75 181.59-19.34 181.59-19.87 181.59-20.41 181.59-20.61L181.59-20.61Q181.4-22.12 182.47-22.12L182.47-22.12Q182.96-22.12 183.3-21.88 183.64-21.63 183.94-21.14L183.94-21.14Q183.79-18.6 184.16-16.24 184.52-13.87 184.99-11.55 185.45-9.23 185.86-6.88 186.28-4.54 186.28-2L186.28-2Q186.28-1.32 185.86-0.63 185.45 0.05 184.62 0.05L184.62 0.05Q183.98 0.05 183.52-1.05 183.06-2.15 182.71-3.83 182.37-5.52 182.13-7.57 181.88-9.62 181.76-11.5 181.64-13.38 181.59-14.87 181.54-16.36 181.54-16.89ZM179.05-29.15L179.05-29.15Q179.05-29.74 179.39-29.91 179.74-30.08 180.27-30.08L180.27-30.08Q180.62-30.13 181.18-29.66 181.74-29.2 182.1-28.61 182.47-28.03 182.52-27.54L182.52-27.54Q182.57-26.95 181.79-26.86L181.79-26.86 181.54-26.86Q180.81-26.86 180.32-26.95 179.83-27.05 179.57-27.27 179.3-27.49 179.17-27.93 179.05-28.37 179.05-29.15ZM193.85-16.8L193.85-16.8Q193.46-16.8 192.48-16.8 191.5-16.8 190.45-16.97 189.4-17.14 188.55-17.53 187.7-17.92 187.7-18.65L187.7-18.65Q187.7-18.85 187.77-19.21 187.84-19.58 188.23-19.58L188.23-19.58 193.26-20.02Q193.46-21.83 193.55-22.97 193.65-24.12 193.6-25.12 193.55-26.12 193.48-27.22 193.41-28.32 193.36-30.08L193.36-30.08Q193.36-30.42 193.51-30.62 193.65-30.81 193.87-30.91 194.09-31.01 194.36-31.05 194.63-31.1 194.78-31.1L194.78-31.1Q195.07-31.1 195.39-30.91 195.7-30.71 195.95-30.42 196.19-30.13 196.34-29.81 196.48-29.49 196.48-29.2L196.48-29.2 196.88-20.07 201.07-19.87Q201.9-19.97 202.61-19.56 203.32-19.14 203.37-18.02L203.37-18.02Q202.78-17.38 201.95-17.26 201.12-17.14 200.22-17.16 199.32-17.19 198.44-17.16 197.56-17.14 196.88-16.7L196.88-16.7Q196.88-16.41 196.92-15.09 196.97-13.77 197.02-11.96 197.07-10.16 197.14-8.11 197.22-6.05 197.27-4.32 197.31-2.59 197.34-1.37 197.36-0.15 197.36 0L197.36 0Q196.24 0.68 195.56-0.12 194.87-0.93 194.46-2.51 194.04-4.1 193.87-6.23 193.7-8.35 193.68-10.42 193.65-12.5 193.7-14.26 193.75-16.02 193.85-16.8Z" opacity="1" transform="matrix(1,0,0,1,0,0)" fill="#31c48d" class="slogan-text-1" data-fill-palette-color="secondary" id="text-1"></path></svg></g></svg></g></svg></g></svg></g></svg></g></svg></g></svg></g><path d="M318.85 41.215L318.85 0 71.65 0 71.65 247.2 318.85 247.2 318.85 205.985 309.22 205.985 309.22 237.569 81.281 237.569 81.281 9.631 309.22 9.631 309.22 41.215Z" fill="#31c48d" stroke="transparent" data-fill-palette-color="tertiary"></path></svg></g><defs></defs></svg><rect width="395.52" height="247.2" fill="none" stroke="none" visibility="hidden"></rect></g></svg></g></svg>